<?xml version="1.0" encoding="utf-8"?>
<!-- Svg Vector Icons : http://www.onlinewebfonts.com/icon -->
<!DOCTYPE svg PUBLIC "-//W3C//DTD SVG 1.1//EN" "http://www.w3.org/Graphics/SVG/1.1/DTD/svg11.dtd">
<svg version="1.1" xmlns="http://www.w3.org/2000/svg" xmlns:xlink="http://www.w3.org/1999/xlink" x="0px" y="0px" viewBox="0 0 1000 1000" enable-background="new 0 0 1000 1000" xml:space="preserve">
<metadata> Svg Vector Icons : http://www.onlinewebfonts.com/icon </metadata>
<g><g transform="translate(0.000000,512.000000) scale(0.100000,-0.100000)"><path fill="#1ec3e0" d="M3799.3,5001.5c-412.3-53.7-673.1-197.5-736.3-408.4c-17.3-57.5-15.3-155.3,9.6-450.6c49.9-565.7,92.1-686.5,272.3-774.7c53.7-28.8,324.1-49.8,751.7-63.3c193.7-5.7,220.5-15.3,212.8-71c-24.9-178.3-838-187.9-1117.9-15.3c-117,72.9-176.4,285.7-268.5,949.2c-28.8,199.4-57.5,373.9-65.2,387.3c-23,44.1-191.8-57.5-396.9-239.7c-209-186-241.6-226.3-278-345.2c-19.2-69-17.3-105.5,11.5-245.4c42.2-197.5,111.2-347.1,297.2-638.5c76.7-120.8,159.2-262.7,182.2-318.3c172.6-387.4,61.4-824.6-245.4-981.8c-182.2-90.1-280-84.4-828.4,59.5c-634.7,166.8-857.1,46-976-531.2c-17.3-80.5-30.7-172.6-30.7-203.3c0-107.4,36.4-107.4,454.5-1.9c439.1,111.2,598.3,128.5,989.5,99.7c257-19.2,358.6-47.9,358.6-99.7c0-36.4-92-76.7-245.4-109.3c-149.6-30.7-166.8-30.7-318.3,0c-262.7,53.7-349,46-663.5-63.3c-155.3-55.6-327.9-101.6-393.1-107.4C551,809.8,572.1,852,577.8,455l5.8-349l134.2,11.5c72.9,5.8,299.1,46,498.6,90.1c671.1,147.7,882.1,186,949.2,178.3c36.4-5.8,170.7-26.8,297.2-47.9c126.6-21.1,383.5-44.1,569.5-51.8l341.3-15.4l140-69c107.4-53.7,174.5-103.6,276.1-214.8c168.7-178.3,285.7-239.7,466-239.7c232,0,460.2,155.3,567.6,391.2c70.9,153.4,88.2,339.4,72.9,755.5c-13.4,360.5-13.4,372-55.6,387.3c-23,9.6-205.2,36.4-400.8,63.3c-303,38.4-366.3,51.8-398.9,86.3c-34.5,34.5-38.4,47.9-19.2,88.2c30.7,69,109.3,76.7,304.9,30.7c372-88.2,504.3-69,544.6,82.4c26.8,97.8,15.3,598.3-13.4,627c-13.4,13.4-51.8,5.8-130.4-30.7c-168.8-76.7-280-78.6-634.7-7.7c-209,42.2-337.5,57.5-404.6,51.8c-203.3-21.1-370.1-155.3-483.2-393.1c-67.1-141.9-71-157.2-71-349c0-168.7,5.8-212.8,40.3-278c99.7-184.1,304.9-316.4,619.4-400.8c280-74.8,339.4-126.6,293.4-255.1c-21.1-63.3,3.8-67.1-349,55.6c-550.3,189.8-676.9,293.4-770.9,627.1c-132.3,475.5-5.8,836,375.8,1064.2c218.6,132.3,469.8,153.4,768.9,69c278-80.5,527.3-32.6,655.8,122.7c95.9,118.9,105.5,170.6,115,726.7c11.5,588.7,19.2,559.9-164.9,627c-59.4,23-210.9,84.4-337.5,140c-214.8,92.1-241.6,99.7-387.3,99.7c-97.8,0-157.2,7.7-153.4,19.2c3.8,11.5,44.1,40.3,92,67.1c69,40.3,109.3,47.9,218.6,46c111.2-1.9,168.7-17.3,333.7-84.4c136.2-55.6,232-82.4,297.2-84.4l97.8-1.9v278c0,266.5-1.9,281.9-53.7,389.3c-90.1,184.1-230.1,235.9-665.4,253.1C4039,5015,3876,5011.1,3799.3,5001.5z"/><path fill="#1ec3e0" d="M5486.8,4992c-128.5-36.4-186-74.8-251.2-170.6c-82.5-122.7-120.8-237.8-130.4-404.6c-11.5-180.2,15.4-306.8,74.8-337.5c57.5-30.7,141.9-11.5,418,97.8c303,118.9,433.4,145.8,552.3,115.1c107.4-26.8,174.5-72.9,220.5-151.5c32.6-55.6,32.6-61.4,1.9-72.9c-17.3-5.7-103.6,11.5-187.9,38.3c-86.3,28.8-174.5,51.8-195.6,51.8c-80.5,0-268.5-61.4-466-153.4c-111.2-51.8-243.6-103.5-291.5-117l-88.2-23l-9.6-452.5c-15.3-611.7,9.6-734.4,166.8-893.6c117-117,209-153.4,383.5-151.5c124.6,0,174.5,9.6,264.6,51.8c293.4,136.2,621.3,57.5,895.5-216.7C7218.3,1828,7226,1339,6861.7,972.8c-140-140-299.2-226.3-573.3-310.7c-299.2-92-350.9-101.6-383.5-61.4c-21.1,26.9-19.2,38.4,13.4,82.5c67.1,90.1,155.3,134.2,372,184.1c326,76.7,427.6,147.7,527.3,366.2c136.1,293.4,13.4,738.3-258.9,937.7c-191.8,141.9-339.4,153.4-663.5,55.6c-243.5-72.9-416.1-72.9-592.5,1.9c-101.7,44.1-134.2,49.8-145.7,30.7c-28.8-46-44.1-590.6-19.2-650c42.2-105.5,193.7-124.6,479.4-59.5c222.5,51.8,341.3,49.9,421.9-3.8c90.1-61.4,90.1-84.4,1.9-130.4c-141.9-71-318.3-101.6-619.4-103.5l-281.9-1.9l-11.5-76.7c-7.6-42.2-3.8-256.9,5.8-479.4c21.1-439.1,32.6-489,151.5-678.8c207.1-326,531.2-473.6,728.7-329.8c42.2,30.7,107.4,97.8,145.7,147.6c109.3,147.6,224.4,251.2,349,308.7c111.2,49.9,130.4,53.7,517.7,65.2c335.6,9.6,431.5,19.2,575.3,55.6c126.6,34.5,222.4,46,364.3,46c207.1-1.9,251.2-11.5,751.7-163c303-90.1,648.1-151.5,676.9-118.9c7.7,7.7,19.2,168.7,26.8,354.8l11.5,339.4l-55.6,28.8c-30.7,17.2-134.2,38.4-232,51.8c-103.6,11.5-255,47.9-370.1,90.1c-222.5,76.7-400.8,90.1-592.5,42.2c-140-34.5-339.4-5.8-494.7,72.9c-84.4,40.3-107.4,63.3-111.2,103.6c-3.8,34.5,7.7,59.4,38.3,80.5c63.3,46,113.1,38.3,251.2-34.5c172.6-92.1,226.3-97.8,423.8-51.8c228.2,55.6,297.2,51.8,531.1-26.9c239.7-82.5,481.3-132.3,544.6-117c30.7,7.7,47.9,24.9,47.9,49.8c0,63.3-99.7,464.1-136.1,550.3c-47.9,115.1-159.2,228.2-258.9,266.5c-126.6,47.9-373.9,26.8-698-61.4c-473.6-126.6-797.7-111.2-956.9,47.9c-97.8,97.8-124.6,203.3-111.2,429.5c11.5,224.4,80.5,425.7,272.3,792c345.2,659.6,360.5,851.4,86.3,1144.8c-124.6,132.3-326,295.3-400.8,322.2c-32.6,13.4-36.4,0-47.9-141.9c-24.9-304.9-128.5-897.4-182.2-1033.6c-11.5-28.8-55.6-86.3-99.7-130.4c-115-111.2-222.5-138.1-487.1-122.7c-161.1,9.6-241.6,3.8-341.3-19.2c-72.9-17.3-182.2-30.7-245.5-30.7c-95.9,0-122.7,7.7-161.1,47.9c-57.5,55.6-59.5,88.2-11.5,132.3c30.7,26.8,47.9,28.8,134.2,9.6c84.4-17.3,141.9-15.3,343.2,19.2c151.5,24.9,310.7,38.3,420,34.5c170.7-3.8,176.4-1.9,234,51.8c36.4,34.5,63.3,86.3,76.7,143.8c30.7,140,46,1018.2,21.1,1117.9c-53.7,201.3-187.9,299.1-487.1,350.9C6156,5030.3,5628.7,5028.4,5486.8,4992z"/><path fill="#1ec3e0" d="M1799.3,3682.3c-214.8-291.5-343.2-538.8-318.3-605.9c7.7-17.3,88.2-78.6,180.3-138.1c203.3-130.4,266.5-186,316.4-283.8c46-92.1,34.5-159.2-34.5-176.4c-70.9-17.3-141.9,21.1-352.8,193.7c-235.9,191.8-260.8,205.2-308.7,143.8c-99.7-128.5-247.4-502.4-247.4-629v-74.8l101.6-11.5c53.7-7.7,224.4-47.9,377.8-90.1c360.5-99.7,567.6-128.5,713.3-97.8c214.8,46,341.3,197.5,341.3,410.4c0,184.1-51.8,312.6-335.6,813c-59.4,109.3-149.6,306.8-199.4,439.1c-47.9,134.2-95.9,247.4-107.4,249.3C1916.3,3828,1858.7,3764.7,1799.3,3682.3z"/><path fill="#1ec3e0" d="M8027.5,3760.9c-15.3-19.2-51.8-115.1-80.5-214.7c-57.5-207.1-101.6-301.1-270.4-569.5c-201.3-320.2-226.3-389.3-228.2-606c0-174.5,3.8-189.8,57.5-266.5c95.9-134.2,170.7-161.1,450.6-159.2c214.8,0,272.3,9.6,554.2,80.5c174.5,44.1,337.5,80.5,366.2,80.5c86.3,0,122.7,42.2,109.3,122.7c-17.3,103.5-178.3,418-255,498.6c-124.7,128.5-209,117-383.5-47.9c-113.2-109.3-209-157.2-270.4-138.1c-46,15.3-24.9,97.8,49.9,191.8c88.2,113.1,159.1,172.6,308.7,266.6c63.3,38.3,115.1,76.7,115.1,86.3c0,21.1-224.4,414.2-308.7,538.8c-67.1,97.8-140,168.7-172.6,168.7C8064,3793.5,8044.8,3778.1,8027.5,3760.9z"/><path fill="#1ec3e0" d="M1523.2,73.4C1281.6,10.1,963.2-70.4,817.5-104.9L551-166.3l13.4-143.8c13.4-145.7,44.1-372,88.2-627c13.4-90.1,32.6-140,47.9-140c13.4,0,94,26.9,180.2,57.5c174.5,65.2,228.2,69,393.1,28.8c63.3-15.3,155.3-28.8,207.1-28.8c132.3,0,159.2,34.5,212.9,268.5c13.4,61.4,155.3,209,235.9,241.6c274.2,117,579.1-143.8,671.1-573.4c70.9-337.5-21.1-512-329.8-625.1c-63.3-23-186-86.3-274.2-140c-157.2-94-306.8-155.3-354.7-141.9c-90.1,26.8-90.1,26.8,70.9,191.7c86.3,90.1,180.2,172.6,209,182.2c26.9,11.5,122.7,32.6,212.9,47.9c264.6,46,318.3,88.2,318.3,256.9c0,239.7-184.1,600.2-350.9,686.5c-122.7,65.2-182.2-7.7-264.6-318.3c-57.5-214.8-122.7-287.6-260.8-287.6c-51.8,0-166.8,21.1-257,47.9c-159.2,46-312.6,61.4-354.7,32.6c-109.3-72.9-128.5-416.1-38.4-694.2c61.4-189.8,232-535,372-763.2c132.3-212.9,337.5-487.1,391.2-519.7c55.6-34.5,82.4,1.9,109.3,161.1c40.3,228.2,126.6,373.9,258.9,433.4c65.2,28.8,126.6,36.4,347.1,36.4c147.7,0,301.1,9.6,339.4,19.2c101.6,28.8,176.4,99.7,262.7,247.4c134.2,228.2,226.3,283.8,575.3,345.2c322.2,59.4,483.2,49.9,513.9-28.8c21.1-57.5-46-86.3-322.2-141.9c-416.1-84.4-443-99.7-596.4-299.1c-107.4-140-210.9-232-295.3-268.5c-44.1-19.2-151.5-26.8-350.9-26.8c-157.2,0-310.7-9.6-341.3-21.1c-172.6-65.2-278-318.3-237.8-573.4c44.1-268.5,209-512,519.7-761.3c757.4-609.8,1466.9-872.5,2013.4-742.1c281.9,65.2,366.3,176.4,404.6,525.4c46,421.9-21.1,632.8-203.3,632.8c-67.1,0-230.1-74.8-416.1-187.9c-241.6-147.7-362.4-199.4-485.1-209c-168.7-11.5-234,38.3-435.3,337.5c-28.8,42.2-113.1,117-187.9,166.8c-72.9,49.9-134.2,97.8-134.2,109.3c0,28.8,272.3,3.8,337.5-30.7c30.7-15.3,105.5-86.3,166.8-155.3c140-159.2,191.8-176.4,383.5-126.6c76.7,21.1,324.1,95.9,550.3,168.8l412.3,134.2l15.3,197.5c21.1,272.3,9.6,510.1-28.8,546.5c-42.2,42.2-212.8,53.7-408.4,28.8c-224.4-30.7-270.4-53.7-429.5-201.3c-136.1-128.5-214.8-166.8-268.5-132.3c-49.9,34.5-28.8,118.9,61.4,233.9c94,124.6,241.6,220.5,385.4,251.2c53.7,13.4,201.3,26.9,327.9,32.6c293.4,9.6,310.6,13.4,345.2,80.5c23,47.9,24.9,107.4,9.6,418c-26.8,498.6-63.3,609.8-235.9,701.8c-71,36.4-109.3,42.2-310.6,42.2c-205.2,0-253.1-7.7-429.5-63.3c-427.6-132.3-604-57.5-851.4,358.6c-117,195.6-126.6,239.7-65.2,280c82.5,53.7,161.1-17.3,280-253.1c82.5-166.8,163-224.3,326-232c105.5-5.8,163,5.7,347.1,65.2c182.2,57.5,249.3,70.9,383.5,70.9c159.2,0,222.4-15.3,435.3-103.5c55.6-23,67.1-21.1,95.9,7.7c30.7,30.7,34.5,69,30.7,287.6c-3.8,345.2-23,531.2-53.7,542.7c-13.4,5.8-94-38.3-180.2-95.9c-360.5-245.5-536.9-218.6-949.2,151.5C3588.4-55.1,3458,50.4,3425.4,67.7c-69,38.3-255,42.2-588.7,17.3c-182.2-13.4-222.4-11.5-419.9,34.5C2044.8,207.6,2025.6,205.7,1523.2,73.4z"/><path fill="#1ec3e0" d="M7851.1,177c-30.7-5.8-168.7-32.6-306.8-59.5c-207.1-44.1-293.4-51.8-508.1-48c-285.7,3.8-441-24.9-544.6-95.9c-32.6-24.9-130.4-109.3-214.8-187.9c-209-193.7-339.4-258.9-515.8-258.9c-164.9,0-291.5,53.7-462.1,197.5c-65.2,55.6-126.6,99.7-138,99.7c-36.4,0-42.2-63.3-42.2-483.2v-423.8l67.1,11.5c38.3,5.8,140,38.3,226.3,72.9c197.5,74.8,280,70.9,598.3-36.4c299.1-99.7,389.3-113.2,498.6-72.9c90.1,36.4,130.4,82.5,255,293.4c44.1,76.7,99.7,151.5,122.7,168.7c47.9,32.6,141.9,38.4,159.2,9.6c19.2-30.7-161.1-352.8-257-464.1c-176.4-199.4-347.1-228.2-749.8-128.5c-324.1,80.5-489,84.4-636.6,11.5c-126.5-61.4-212.8-161.1-268.4-306.8c-32.6-80.5-42.2-159.2-49.9-406.5c-5.8-199.4,0-335.6,13.4-387.4c19.2-72.9,30.7-84.4,103.6-103.5c51.8-13.4,145.7-17.3,262.7-7.7c454.5,30.7,805.4-163,805.4-443c0-78.6-28.8-141.9-65.2-141.9c-13.4,0-97.8,72.9-186,163c-143.8,147.7-172.6,166.8-276.1,195.6c-120.8,32.6-588.7,46-617.5,17.2c-26.9-24.9-19.2-734.4,7.7-761.2c13.4-13.4,103.6-26.9,220.5-30.7c216.7-9.6,293.4-30.7,448.7-130.4c396.9-255,536.9-237.8,795.8,97.8c99.7,128.5,168.8,168.8,262.7,151.5c86.3-15.3,214.8-67.1,214.8-84.4c0-7.7-40.3-24.9-90.1-36.4c-155.3-40.3-235.9-99.7-370.1-272.3c-163-209-274.2-287.6-410.4-287.6c-122.7,0-216.7,44.1-452.5,201.3c-203.3,136.1-310.6,182.2-429.5,182.2c-138.1,0-207.1-86.3-232-287.6c-17.2-153.4,17.2-460.2,65.2-552.3c103.5-201.3,347.1-318.3,663.5-318.3c636.6,1.9,1606.9,481.3,1996.2,987.5c46,61.4,117,178.3,155.3,260.8c63.3,130.4,72.9,170.6,78.6,324c19.2,410.4-117,552.3-479.4,506.2c-251.2-30.7-408.4-24.9-494.7,19.2c-82.5,42.2-122.7,92-207.1,260.8c-65.2,128.5-163,226.3-281.9,278c-44.1,19.2-195.6,53.7-337.5,76.7c-274.2,44.1-312.6,55.6-343.3,111.2c-13.4,26.8-9.6,47.9,23,88.2c40.3,51.8,46,51.8,186,42.2c187.9-13.4,429.5-84.4,567.6-168.8c74.8-44.1,138.1-105.5,199.4-187.9c134.2-184.1,193.7-249.3,258.9-283.8c74.8-38.3,230.1-38.3,395,1.9c182.2,44.1,281.9,38.3,398.8-19.2c159.1-78.6,260.8-270.4,287.6-538.8c9.6-80.5,23-130.4,40.3-136.1c70.9-23,442.9,466,615.5,811.1c149.6,303,212.8,517.7,224.4,778.5c17.2,339.4-53.7,419.9-308.7,352.8c-278-72.9-471.7-26.8-548.4,134.2c-21.1,44.1-38.3,92-38.3,107.4c0,70.9-63.3,260.8-99.7,299.1c-30.7,32.6-63.3,44.1-120.8,44.1c-117,0-199.4-63.3-272.3-210.9c-65.2-130.4-140-408.4-140-523.5c0-99.7,76.7-157.2,253.1-186c186-28.8,262.7-53.7,331.7-105.5c57.5-44.1,316.4-293.4,316.4-306.8c0-3.8-30.7-17.2-67.1-28.8c-86.3-28.8-140-9.6-306.8,103.6c-130.4,88.2-176.4,107.4-379.7,143.8c-228.2,40.3-320.2,151.5-320.2,381.6c0,385.4,245.4,861,477.5,924.3c203.2,53.7,385.4-72.9,416.1-287.6c21.1-159.2,47.9-235.9,103.6-291.5c76.7-76.7,176.4-72.9,373.9,15.4c84.4,36.4,193.7,72.9,243.5,78.6c84.4,9.6,92,7.7,184.1-78.6c76.7-72.9,138.1-109.3,138.1-82.5c0,1.9,21.1,115,47.9,251.2c59.4,295.3,80.5,573.3,49.8,650c-19.2,49.9-24.9,51.8-168.7,51.8c-266.5,1.9-404.6,36.4-956.9,237.8C8175.2,167.4,7966.2,194.2,7851.1,177z"/></g></g>
</svg>