<?xml version="1.0" encoding="UTF-8" standalone="no" ?>
<!DOCTYPE svg PUBLIC "-//W3C//DTD SVG 1.1//EN" "http://www.w3.org/Graphics/SVG/1.1/DTD/svg11.dtd">
<svg xmlns="http://www.w3.org/2000/svg" xmlns:xlink="http://www.w3.org/1999/xlink" version="1.1" width="1080" height="1080" viewBox="0 0 1080 1080" xml:space="preserve">
<desc>Created with Fabric.js 5.2.4</desc>
<defs>
</defs>
<rect x="0" y="0" width="100%" height="100%" fill="transparent"></rect>
<g transform="matrix(1 0 0 1 540 540)" id="b9155d96-c586-4c5c-9e1e-931c8efb0bf2"  >
<rect style="stroke: none; stroke-width: 1; stroke-dasharray: none; stroke-linecap: butt; stroke-dashoffset: 0; stroke-linejoin: miter; stroke-miterlimit: 4; fill: rgb(255,255,255); fill-rule: nonzero; opacity: 1; visibility: hidden;" vector-effect="non-scaling-stroke"  x="-540" y="-540" rx="0" ry="0" width="1080" height="1080" />
</g>
<g transform="matrix(1 0 0 1 540 540)" id="8ca4f42a-a77b-48ef-a199-fb1e2fe62604"  >
</g>
<g transform="matrix(1 0 0 1 540 540)"  >
<g style="opacity: 0.92;" vector-effect="non-scaling-stroke"   >
		<g transform="matrix(0.1 0 0 -0.1 -226.21 -225.99)"  >
<path style="stroke: none; stroke-width: 1; stroke-dasharray: none; stroke-linecap: butt; stroke-dashoffset: 0; stroke-linejoin: miter; stroke-miterlimit: 4; fill: rgb(0,0,0); fill-opacity: 0.03; fill-rule: nonzero; opacity: 1;" vector-effect="non-scaling-stroke"  transform=" translate(-2737.96, -2379.85)" d="M 3799.3 5001.5 C 3387 4947.8 3126.2000000000003 4804 3063 4593.1 C 3045.7 4535.6 3047.7 4437.8 3072.6 4142.5 C 3122.5 3576.8 3164.7 3456 3344.9 3367.8 C 3398.6 3339 3669 3318 4096.6 3304.5 C 4290.3 3298.8 4317.1 3289.2 4309.400000000001 3233.5 C 4284.500000000001 3055.2 3471.4000000000005 3045.6 3191.5000000000005 3218.2 C 3074.5000000000005 3291.1 3015.1000000000004 3503.8999999999996 2923.0000000000005 4167.4 C 2894.2000000000003 4366.799999999999 2865.5000000000005 4541.299999999999 2857.8000000000006 4554.7 C 2834.8000000000006 4598.8 2666.0000000000005 4497.2 2460.9000000000005 4315 C 2251.9000000000005 4129 2219.3000000000006 4088.7 2182.9000000000005 3969.8 C 2163.7000000000007 3900.8 2165.6000000000004 3864.3 2194.4000000000005 3724.4 C 2236.6000000000004 3526.9 2305.6000000000004 3377.3 2491.6000000000004 3085.9 C 2568.3 2965.1 2650.8 2823.2000000000003 2673.8 2767.6 C 2846.4 2380.2 2735.2000000000003 1943 2428.4 1785.8 C 2246.2000000000003 1695.7 2148.4 1701.3999999999999 1600 1845.3 C 965.3 2012.1 742.9 1891.3 624 1314.1 C 606.7 1233.6 593.3 1141.5 593.3 1110.8 C 593.3 1003.4 629.6999999999999 1003.4 1047.8 1108.8999999999999 C 1486.9 1220.1 1646.1 1237.3999999999999 2037.3 1208.6 C 2294.3 1189.3999999999999 2395.9 1160.6999999999998 2395.9 1108.8999999999999 C 2395.9 1072.4999999999998 2303.9 1032.1999999999998 2150.5 999.5999999999999 C 2000.9 968.8999999999999 1983.7 968.8999999999999 1832.2 999.5999999999999 C 1569.5 1053.3 1483.2 1045.6 1168.7 936.3 C 1013.4000000000001 880.6999999999999 840.8000000000001 834.6999999999999 775.6 828.9 C 551 809.8 572.1 852 577.8 455 L 583.5999999999999 106 L 717.8 117.5 C 790.6999999999999 123.3 1016.9 163.5 1216.4 207.6 C 1887.5 355.29999999999995 2098.5 393.6 2165.6000000000004 385.9 C 2202.0000000000005 380.09999999999997 2336.3 359.09999999999997 2462.8 338 C 2589.4 316.9 2846.3 293.9 3032.3 286.2 L 3373.6000000000004 270.8 L 3513.6000000000004 201.8 C 3621.0000000000005 148.10000000000002 3688.1000000000004 98.20000000000002 3789.7000000000003 -13 C 3958.4 -191.3 4075.4 -252.7 4255.700000000001 -252.7 C 4487.700000000001 -252.7 4715.900000000001 -97.39999999999998 4823.300000000001 138.5 C 4894.200000000001 291.9 4911.500000000001 477.9 4896.200000000001 894 C 4882.800000000001 1254.5 4882.800000000001 1266 4840.6 1281.3 C 4817.6 1290.8999999999999 4635.400000000001 1317.7 4439.8 1344.6 C 4136.8 1383 4073.5 1396.3999999999999 4040.9 1430.8999999999999 C 4006.4 1465.3999999999999 4002.5 1478.8 4021.7000000000003 1519.1 C 4052.4 1588.1 4131 1595.8 4326.6 1549.8 C 4698.6 1461.6 4830.900000000001 1480.8 4871.200000000001 1632.2 C 4898.000000000001 1730 4886.500000000001 2230.5 4857.800000000001 2259.2 C 4844.4000000000015 2272.6 4806.000000000001 2265 4727.4000000000015 2228.5 C 4558.600000000001 2151.8 4447.4000000000015 2149.9 4092.7000000000016 2220.8 C 3883.7000000000016 2263 3755.2000000000016 2278.3 3688.1000000000017 2272.6000000000004 C 3484.8000000000015 2251.5000000000005 3318.000000000002 2117.3 3204.900000000002 1879.5000000000005 C 3137.800000000002 1737.6000000000004 3133.900000000002 1722.3000000000004 3133.900000000002 1530.5000000000005 C 3133.900000000002 1361.8000000000004 3139.700000000002 1317.7000000000005 3174.200000000002 1252.5000000000005 C 3273.900000000002 1068.4000000000005 3479.100000000002 936.1000000000005 3793.600000000002 851.7000000000005 C 4073.600000000002 776.9000000000005 4133.000000000002 725.1000000000005 4087.0000000000023 596.6000000000005 C 4065.9000000000024 533.3000000000005 4090.8000000000025 529.5000000000005 3738.0000000000023 652.2000000000005 C 3187.7000000000025 842.0000000000005 3061.100000000002 945.6000000000005 2967.100000000002 1279.3000000000006 C 2834.800000000002 1754.8000000000006 2961.300000000002 2115.3000000000006 3342.9000000000024 2343.500000000001 C 3561.5000000000023 2475.800000000001 3812.7000000000025 2496.900000000001 4111.800000000002 2412.500000000001 C 4389.800000000002 2332.000000000001 4639.100000000002 2379.900000000001 4767.600000000002 2535.2000000000007 C 4863.500000000002 2654.100000000001 4873.100000000002 2705.8000000000006 4882.600000000002 3261.9000000000005 C 4894.100000000002 3850.6000000000004 4901.800000000002 3821.8000000000006 4717.700000000003 3888.9000000000005 C 4658.300000000003 3911.9000000000005 4506.800000000003 3973.3000000000006 4380.200000000003 4028.9000000000005 C 4165.400000000002 4121.000000000001 4138.600000000002 4128.6 3992.9000000000024 4128.6 C 3895.100000000002 4128.6 3835.7000000000025 4136.3 3839.5000000000023 4147.8 C 3843.3000000000025 4159.3 3883.600000000002 4188.1 3931.5000000000023 4214.900000000001 C 4000.5000000000023 4255.200000000001 4040.8000000000025 4262.8 4150.100000000002 4260.900000000001 C 4261.300000000002 4259.000000000001 4318.800000000002 4243.6 4483.800000000002 4176.500000000001 C 4620.000000000002 4120.900000000001 4715.800000000002 4094.100000000001 4781.000000000002 4092.100000000001 L 4878.800000000002 4090.2000000000007 L 4878.800000000002 4368.200000000001 C 4878.800000000002 4634.700000000001 4876.900000000002 4650.1 4825.100000000002 4757.500000000001 C 4735.000000000002 4941.600000000001 4595.000000000002 4993.400000000001 4159.700000000003 5010.600000000001 C 4039 5015 3876 5011.1 3799.3 5001.5 z" stroke-linecap="round" />
</g>
		<g transform="matrix(0.1 0 0 -0.1 226.77 -223.54)"  >
<path style="stroke: none; stroke-width: 1; stroke-dasharray: none; stroke-linecap: butt; stroke-dashoffset: 0; stroke-linejoin: miter; stroke-miterlimit: 4; fill: rgb(0,0,0); fill-opacity: 0.03; fill-rule: nonzero; opacity: 1;" vector-effect="non-scaling-stroke"  transform=" translate(-7267.85, -2355.26)" d="M 5486.8 4992 C 5358.3 4955.6 5300.8 4917.2 5235.6 4821.4 C 5153.1 4698.7 5114.8 4583.599999999999 5105.200000000001 4416.799999999999 C 5093.700000000001 4236.599999999999 5120.6 4109.999999999999 5180.000000000001 4079.2999999999993 C 5237.500000000001 4048.5999999999995 5321.900000000001 4067.7999999999993 5598.000000000001 4177.099999999999 C 5901.000000000001 4295.999999999999 6031.400000000001 4322.9 6150.300000000001 4292.2 C 6257.700000000001 4265.4 6324.800000000001 4219.3 6370.800000000001 4140.7 C 6403.4000000000015 4085.1 6403.4000000000015 4079.2999999999997 6372.700000000001 4067.7999999999997 C 6355.400000000001 4062.1 6269.1 4079.2999999999997 6184.800000000001 4106.099999999999 C 6098.500000000001 4134.9 6010.300000000001 4157.9 5989.200000000001 4157.9 C 5908.700000000001 4157.9 5720.700000000001 4096.5 5523.200000000001 4004.4999999999995 C 5412.000000000001 3952.6999999999994 5279.6 3900.9999999999995 5231.700000000001 3887.4999999999995 L 5143.500000000001 3864.4999999999995 L 5133.900000000001 3411.9999999999995 C 5118.6 2800.2999999999993 5143.500000000001 2677.5999999999995 5300.700000000001 2518.3999999999996 C 5417.700000000001 2401.3999999999996 5509.700000000001 2364.9999999999995 5684.200000000001 2366.8999999999996 C 5808.800000000001 2366.8999999999996 5858.700000000001 2376.4999999999995 5948.800000000001 2418.7 C 6242.200000000001 2554.8999999999996 6570.100000000001 2476.2 6844.300000000001 2202 C 7218.3 1828 7226 1339 6861.7 972.8 C 6721.7 832.8 6562.5 746.5 6288.4 662.0999999999999 C 5989.2 570.0999999999999 5937.5 560.4999999999999 5904.9 600.6999999999999 C 5883.799999999999 627.5999999999999 5885.7 639.0999999999999 5918.299999999999 683.1999999999999 C 5985.4 773.3 6073.599999999999 817.3999999999999 6290.299999999999 867.3 C 6616.299999999999 944 6717.9 1015 6817.599999999999 1233.5 C 6953.7 1526.9 6830.999999999999 1971.8 6558.7 2171.2 C 6366.9 2313.1 6219.3 2324.6 5895.2 2226.7999999999997 C 5651.7 2153.8999999999996 5479.099999999999 2153.8999999999996 5302.7 2228.7 C 5201 2272.7999999999997 5168.5 2278.5 5157 2259.3999999999996 C 5128.2 2213.3999999999996 5112.9 1668.7999999999997 5137.8 1609.3999999999996 C 5180 1503.8999999999996 5331.5 1484.7999999999997 5617.2 1549.8999999999996 C 5839.7 1601.6999999999996 5958.5 1599.7999999999997 6039.099999999999 1546.0999999999997 C 6129.2 1484.6999999999996 6129.2 1461.6999999999996 6040.999999999999 1415.6999999999996 C 5899.099999999999 1344.6999999999996 5722.699999999999 1314.0999999999997 5421.599999999999 1312.1999999999996 L 5139.7 1310.2999999999995 L 5128.2 1233.5999999999995 C 5120.599999999999 1191.3999999999994 5124.4 976.6999999999995 5134 754.1999999999995 C 5155.1 315.09999999999945 5166.6 265.1999999999995 5285.5 75.39999999999952 C 5492.6 -250.60000000000048 5816.7 -398.2000000000005 6014.2 -254.4000000000005 C 6056.4 -223.7000000000005 6121.599999999999 -156.60000000000048 6159.9 -106.8000000000005 C 6269.2 40.7999999999995 6384.299999999999 144.3999999999995 6508.9 201.8999999999995 C 6620.099999999999 251.7999999999995 6639.299999999999 255.5999999999995 7026.599999999999 267.0999999999995 C 7362.2 276.69999999999953 7458.099999999999 286.2999999999995 7601.9 322.69999999999953 C 7728.5 357.19999999999953 7824.299999999999 368.69999999999953 7966.2 368.69999999999953 C 8173.3 366.79999999999956 8217.4 357.19999999999953 8717.9 205.69999999999953 C 9020.9 115.59999999999954 9366 54.199999999999534 9394.8 86.79999999999953 C 9402.5 94.49999999999953 9414 255.49999999999952 9421.599999999999 441.59999999999957 L 9433.099999999999 780.9999999999995 L 9377.499999999998 809.7999999999995 C 9346.799999999997 826.9999999999995 9243.299999999997 848.1999999999995 9145.499999999998 861.5999999999995 C 9041.899999999998 873.0999999999995 8890.499999999998 909.4999999999994 8775.399999999998 951.6999999999995 C 8552.899999999998 1028.3999999999994 8374.599999999999 1041.7999999999995 8182.899999999998 993.8999999999995 C 8042.899999999998 959.3999999999995 7843.499999999998 988.0999999999996 7688.199999999998 1066.7999999999995 C 7603.799999999998 1107.0999999999995 7580.799999999998 1130.0999999999995 7576.999999999998 1170.3999999999994 C 7573.199999999998 1204.8999999999994 7584.699999999998 1229.7999999999995 7615.299999999998 1250.8999999999994 C 7678.5999999999985 1296.8999999999994 7728.399999999999 1289.1999999999994 7866.499999999998 1216.3999999999994 C 8039.0999999999985 1124.2999999999995 8092.799999999998 1118.5999999999995 8290.299999999997 1164.5999999999995 C 8518.499999999998 1220.1999999999994 8587.499999999998 1216.3999999999994 8821.399999999998 1137.6999999999994 C 9061.099999999999 1055.1999999999994 9302.699999999997 1005.3999999999994 9365.999999999998 1020.6999999999994 C 9396.699999999999 1028.3999999999994 9413.899999999998 1045.5999999999995 9413.899999999998 1070.4999999999993 C 9413.899999999998 1133.7999999999993 9314.199999999997 1534.5999999999995 9277.799999999997 1620.7999999999993 C 9229.899999999998 1735.8999999999992 9118.599999999997 1848.9999999999993 9018.899999999998 1887.2999999999993 C 8892.299999999997 1935.1999999999994 8644.999999999998 1914.0999999999992 8320.899999999998 1825.8999999999992 C 7847.299999999997 1699.2999999999993 7523.199999999998 1714.6999999999991 7363.999999999998 1873.7999999999993 C 7266.199999999998 1971.5999999999992 7239.399999999998 2077.0999999999995 7252.799999999998 2303.2999999999993 C 7264.299999999998 2527.6999999999994 7333.299999999998 2728.999999999999 7525.0999999999985 3095.2999999999993 C 7870.299999999998 3754.899999999999 7885.5999999999985 3946.6999999999994 7611.399999999999 4240.099999999999 C 7486.799999999998 4372.4 7285.399999999999 4535.4 7210.5999999999985 4562.299999999999 C 7177.999999999998 4575.699999999999 7174.199999999999 4562.299999999999 7162.699999999999 4420.4 C 7137.799999999999 4115.5 7034.199999999999 3522.9999999999995 6980.499999999999 3386.7999999999997 C 6968.999999999999 3357.9999999999995 6924.899999999999 3300.4999999999995 6880.799999999999 3256.3999999999996 C 6765.799999999999 3145.2 6658.299999999999 3118.2999999999997 6393.699999999999 3133.7 C 6232.5999999999985 3143.2999999999997 6152.0999999999985 3137.5 6052.399999999999 3114.5 C 5979.499999999999 3097.2 5870.199999999999 3083.8 5806.899999999999 3083.8 C 5710.999999999999 3083.8 5684.199999999999 3091.5 5645.799999999998 3131.7000000000003 C 5588.299999999998 3187.3 5586.299999999998 3219.9 5634.299999999998 3264.0000000000005 C 5664.999999999998 3290.8000000000006 5682.199999999998 3292.8000000000006 5768.499999999998 3273.6000000000004 C 5852.899999999998 3256.3 5910.399999999998 3258.3 6111.699999999998 3292.8 C 6263.199999999998 3317.7000000000003 6422.399999999998 3331.1000000000004 6531.699999999998 3327.3 C 6702.399999999998 3323.5 6708.099999999998 3325.4 6765.699999999998 3379.1000000000004 C 6802.099999999998 3413.6000000000004 6828.999999999998 3465.4000000000005 6842.399999999998 3522.9000000000005 C 6873.099999999998 3662.9000000000005 6888.399999999998 4541.1 6863.499999999998 4640.800000000001 C 6809.799999999998 4842.100000000001 6675.5999999999985 4939.9000000000015 6376.399999999998 4991.700000000001 C 6156 5030.3 5628.7 5028.4 5486.8 4992 z" stroke-linecap="round" />
</g>
		<g transform="matrix(0.1 0 0 -0.1 -319.88 -274.26)"  >
<path style="stroke: none; stroke-width: 1; stroke-dasharray: none; stroke-linecap: butt; stroke-dashoffset: 0; stroke-linejoin: miter; stroke-miterlimit: 4; fill: rgb(0,0,0); fill-opacity: 0.03; fill-rule: nonzero; opacity: 1;" vector-effect="non-scaling-stroke"  transform=" translate(-1801.3, -2862.54)" d="M 1799.3 3682.3 C 1584.5 3390.8 1456.1 3143.5 1481 3076.4 C 1488.7 3059.1 1569.2 2997.8 1661.3 2938.3 C 1864.6 2807.9 1927.8 2752.3 1977.6999999999998 2654.5 C 2023.6999999999998 2562.4 2012.1999999999998 2495.3 1943.1999999999998 2478.1 C 1872.2999999999997 2460.7999999999997 1801.2999999999997 2499.2 1590.3999999999999 2671.7999999999997 C 1354.4999999999998 2863.6 1329.6 2876.9999999999995 1281.6999999999998 2815.6 C 1181.9999999999998 2687.1 1034.2999999999997 2313.2 1034.2999999999997 2186.6 L 1034.2999999999997 2111.7999999999997 L 1135.8999999999996 2100.2999999999997 C 1189.5999999999997 2092.6 1360.2999999999997 2052.3999999999996 1513.6999999999996 2010.1999999999998 C 1874.1999999999996 1910.4999999999998 2081.2999999999997 1881.6999999999998 2226.9999999999995 1912.3999999999999 C 2441.7999999999997 1958.3999999999999 2568.2999999999997 2109.8999999999996 2568.2999999999997 2322.7999999999997 C 2568.2999999999997 2506.8999999999996 2516.4999999999995 2635.3999999999996 2232.7 3135.7999999999997 C 2173.2999999999997 3245.1 2083.1 3442.6 2033.2999999999997 3574.8999999999996 C 1985.3999999999996 3709.0999999999995 1937.3999999999996 3822.2999999999997 1925.8999999999996 3824.2 C 1916.3 3828 1858.7 3764.7 1799.3 3682.3 z" stroke-linecap="round" />
</g>
		<g transform="matrix(0.1 0 0 -0.1 321.85 -274.93)"  >
<path style="stroke: none; stroke-width: 1; stroke-dasharray: none; stroke-linecap: butt; stroke-dashoffset: 0; stroke-linejoin: miter; stroke-miterlimit: 4; fill: rgb(0,0,0); fill-opacity: 0.03; fill-rule: nonzero; opacity: 1;" vector-effect="non-scaling-stroke"  transform=" translate(-8218.65, -2869.2)" d="M 8027.5 3760.9 C 8012.2 3741.7000000000003 7975.7 3645.8 7947 3546.2000000000003 C 7889.5 3339.1000000000004 7845.4 3245.1000000000004 7676.6 2976.7000000000003 C 7475.3 2656.5000000000005 7450.3 2587.4 7448.400000000001 2370.7000000000003 C 7448.400000000001 2196.2000000000003 7452.200000000001 2180.9 7505.900000000001 2104.2000000000003 C 7601.8 1970.0000000000002 7676.6 1943.1000000000004 7956.500000000001 1945.0000000000002 C 8171.300000000001 1945.0000000000002 8228.800000000001 1954.6000000000001 8510.7 2025.5000000000002 C 8685.2 2069.6000000000004 8848.2 2106 8876.900000000001 2106 C 8963.2 2106 8999.600000000002 2148.2 8986.2 2228.7 C 8968.900000000001 2332.2 8807.900000000001 2646.7 8731.2 2727.2999999999997 C 8606.5 2855.7999999999997 8522.2 2844.2999999999997 8347.7 2679.3999999999996 C 8234.5 2570.0999999999995 8138.700000000001 2522.2 8077.300000000001 2541.2999999999997 C 8031.300000000001 2556.6 8052.4000000000015 2639.1 8127.200000000001 2733.1 C 8215.400000000001 2846.2 8286.300000000001 2905.7 8435.900000000001 2999.7 C 8499.2 3038 8551.000000000002 3076.3999999999996 8551.000000000002 3086 C 8551.000000000002 3107.1 8326.600000000002 3500.2 8242.300000000001 3624.8 C 8175.200000000001 3722.6000000000004 8102.300000000001 3793.5 8069.700000000001 3793.5 C 8064 3793.5 8044.8 3778.1 8027.5 3760.9 z" stroke-linecap="round" />
</g>
		<g transform="matrix(0.1 0 0 -0.1 -227.23 241.99)"  >
<path style="stroke: none; stroke-width: 1; stroke-dasharray: none; stroke-linecap: butt; stroke-dashoffset: 0; stroke-linejoin: miter; stroke-miterlimit: 4; fill: rgb(0,0,0); fill-opacity: 0.03; fill-rule: nonzero; opacity: 1;" vector-effect="non-scaling-stroke"  transform=" translate(-2727.82, 2300.03)" d="M 1523.2 73.4 C 1281.6 10.1 963.2 -70.4 817.5 -104.9 L 551 -166.3 L 564.4 -310.1 C 577.8 -455.8 608.5 -682.1 652.6 -937.1 C 666 -1027.2 685.2 -1077.1 700.5 -1077.1 C 713.9 -1077.1 794.5 -1050.1999999999998 880.7 -1019.5999999999999 C 1055.2 -954.3999999999999 1108.9 -950.5999999999999 1273.8000000000002 -990.8 C 1337.1000000000001 -1006.0999999999999 1429.1000000000001 -1019.5999999999999 1480.9 -1019.5999999999999 C 1613.2 -1019.5999999999999 1640.1000000000001 -985.0999999999999 1693.8000000000002 -751.0999999999999 C 1707.2000000000003 -689.6999999999999 1849.1000000000001 -542.0999999999999 1929.7000000000003 -509.4999999999999 C 2203.9 -392.4999999999999 2508.8 -653.3 2600.8 -1082.8999999999999 C 2671.7000000000003 -1420.3999999999999 2579.7000000000003 -1594.8999999999999 2271 -1708 C 2207.7 -1731 2085 -1794.3 1996.8 -1848 C 1839.6 -1942 1690 -2003.3 1642.1 -1989.9 C 1552 -1963.1000000000001 1552 -1963.1000000000001 1713 -1798.2 C 1799.3 -1708.1000000000001 1893.2 -1625.6000000000001 1922 -1616 C 1948.9 -1604.5 2044.7 -1583.4 2134.9 -1568.1 C 2399.5 -1522.1 2453.2000000000003 -1479.8999999999999 2453.2000000000003 -1311.1999999999998 C 2453.2000000000003 -1071.4999999999998 2269.1000000000004 -710.9999999999998 2102.3 -624.6999999999998 C 1979.6000000000001 -559.4999999999998 1920.1000000000001 -632.3999999999999 1837.7000000000003 -942.9999999999998 C 1780.2000000000003 -1157.7999999999997 1715.0000000000002 -1230.6 1576.9000000000003 -1230.6 C 1525.1000000000004 -1230.6 1410.1000000000004 -1209.5 1319.9000000000003 -1182.6999999999998 C 1160.7000000000003 -1136.6999999999998 1007.3000000000003 -1121.2999999999997 965.2000000000003 -1150.1 C 855.9000000000003 -1223 836.7000000000003 -1566.1999999999998 926.8000000000003 -1844.3 C 988.2000000000003 -2034.1 1158.8000000000002 -2379.3 1298.8000000000002 -2607.5 C 1431.1000000000001 -2820.4 1636.3000000000002 -3094.6 1690.0000000000002 -3127.2 C 1745.6000000000001 -3161.7 1772.4000000000003 -3125.2999999999997 1799.3000000000002 -2966.1 C 1839.6000000000001 -2737.9 1925.9 -2592.2 2058.2000000000003 -2532.7 C 2123.4 -2503.8999999999996 2184.8 -2496.2999999999997 2405.3 -2496.2999999999997 C 2553 -2496.2999999999997 2706.4 -2486.7 2744.7000000000003 -2477.1 C 2846.3 -2448.2999999999997 2921.1000000000004 -2377.4 3007.4 -2229.7 C 3141.6 -2001.4999999999998 3233.7000000000003 -1945.8999999999999 3582.7 -1884.4999999999998 C 3904.8999999999996 -1825.0999999999997 4065.8999999999996 -1834.5999999999997 4096.599999999999 -1913.2999999999997 C 4117.7 -1970.7999999999997 4050.5999999999995 -1999.5999999999997 3774.3999999999996 -2055.2 C 3358.2999999999997 -2139.6 3331.3999999999996 -2154.8999999999996 3177.9999999999995 -2354.2999999999997 C 3070.5999999999995 -2494.2999999999997 2967.0999999999995 -2586.2999999999997 2882.6999999999994 -2622.7999999999997 C 2838.5999999999995 -2641.9999999999995 2731.1999999999994 -2649.6 2531.7999999999993 -2649.6 C 2374.5999999999995 -2649.6 2221.0999999999995 -2659.2 2190.499999999999 -2670.7 C 2017.8999999999992 -2735.8999999999996 1912.499999999999 -2989 1952.6999999999991 -3244.1 C 1996.799999999999 -3512.6 2161.699999999999 -3756.1 2472.399999999999 -4005.3999999999996 C 3229.7999999999993 -4615.2 3939.2999999999993 -4877.9 4485.799999999999 -4747.5 C 4767.699999999999 -4682.3 4852.099999999999 -4571.1 4890.4 -4222.1 C 4936.4 -3800.2000000000003 4869.299999999999 -3589.3 4687.099999999999 -3589.3 C 4619.999999999999 -3589.3 4456.999999999999 -3664.1000000000004 4270.999999999999 -3777.2000000000003 C 4029.399999999999 -3924.9 3908.599999999999 -3976.6000000000004 3785.899999999999 -3986.2000000000003 C 3617.1999999999994 -3997.7000000000003 3551.899999999999 -3947.9 3350.599999999999 -3648.7000000000003 C 3321.799999999999 -3606.5000000000005 3237.499999999999 -3531.7000000000003 3162.699999999999 -3481.9 C 3089.799999999999 -3432 3028.499999999999 -3384.1 3028.499999999999 -3372.6 C 3028.499999999999 -3343.7999999999997 3300.7999999999993 -3368.7999999999997 3365.999999999999 -3403.2999999999997 C 3396.699999999999 -3418.6 3471.499999999999 -3489.6 3532.7999999999993 -3558.6 C 3672.7999999999993 -3717.7999999999997 3724.5999999999995 -3735 3916.2999999999993 -3685.2 C 3992.999999999999 -3664.1 4240.4 -3589.2999999999997 4466.599999999999 -3516.3999999999996 L 4878.9 -3382.2 L 4894.2 -3184.7 C 4915.3 -2912.3999999999996 4903.8 -2674.6 4865.4 -2638.2 C 4823.2 -2596 4652.599999999999 -2584.5 4457 -2609.3999999999996 C 4232.6 -2640.0999999999995 4186.6 -2663.0999999999995 4027.5 -2810.7 C 3891.4 -2939.2 3812.7 -2977.5 3759 -2943 C 3709.1 -2908.5 3730.2 -2824.1 3820.4 -2709.1 C 3914.4 -2584.5 4062 -2488.6 4205.8 -2457.9 C 4259.5 -2444.5 4407.1 -2431 4533.7 -2425.3 C 4827.099999999999 -2415.7000000000003 4844.3 -2411.9 4878.9 -2344.8 C 4901.9 -2296.9 4903.799999999999 -2237.4 4888.5 -1926.8000000000002 C 4861.7 -1428.2000000000003 4825.2 -1317.0000000000002 4652.6 -1225.0000000000002 C 4581.6 -1188.6000000000001 4543.3 -1182.8000000000002 4342 -1182.8000000000002 C 4136.8 -1182.8000000000002 4088.9 -1190.5000000000002 3912.5 -1246.1000000000001 C 3484.9 -1378.4 3308.5 -1303.6000000000001 3061.1 -887.5000000000001 C 2944.1 -691.9000000000001 2934.5 -647.8000000000002 2995.9 -607.5000000000001 C 3078.4 -553.8000000000001 3157 -624.8000000000001 3275.9 -860.6000000000001 C 3358.4 -1027.4 3438.9 -1084.9 3601.9 -1092.6000000000001 C 3707.4 -1098.4 3764.9 -1086.9 3949 -1027.4 C 4131.2 -969.9000000000001 4198.3 -956.5000000000001 4332.5 -956.5000000000001 C 4491.7 -956.5000000000001 4554.9 -971.8000000000001 4767.8 -1060 C 4823.400000000001 -1083 4834.900000000001 -1081.1 4863.7 -1052.3 C 4894.4 -1021.5999999999999 4898.2 -983.3 4894.4 -764.6999999999999 C 4890.599999999999 -419.49999999999994 4871.4 -233.4999999999999 4840.7 -221.9999999999999 C 4827.3 -216.19999999999987 4746.7 -260.2999999999999 4660.5 -317.89999999999986 C 4300 -563.3999999999999 4123.6 -536.4999999999999 3711.3 -166.39999999999986 C 3588.4 -55.1 3458 50.4 3425.4 67.7 C 3356.4 106 3170.4 109.9 2836.7 85 C 2654.5 71.6 2614.2999999999997 73.5 2416.7999999999997 119.5 C 2044.8 207.6 2025.6 205.7 1523.2 73.4 z" stroke-linecap="round" />
</g>
		<g transform="matrix(0.1 0 0 -0.1 226.55 241.21)"  >
<path style="stroke: none; stroke-width: 1; stroke-dasharray: none; stroke-linecap: butt; stroke-dashoffset: 0; stroke-linejoin: miter; stroke-miterlimit: 4; fill: rgb(0,0,0); fill-opacity: 0.03; fill-rule: nonzero; opacity: 1;" vector-effect="non-scaling-stroke"  transform=" translate(-7265.59, 2292.24)" d="M 7851.1 177 C 7820.400000000001 171.2 7682.400000000001 144.4 7544.3 117.5 C 7337.2 73.4 7250.900000000001 65.7 7036.2 69.5 C 6750.5 73.3 6595.2 44.6 6491.599999999999 -26.400000000000006 C 6458.999999999999 -51.300000000000004 6361.2 -135.7 6276.799999999999 -214.3 C 6067.799999999999 -408 5937.4 -473.2 5760.999999999999 -473.2 C 5596.099999999999 -473.2 5469.499999999999 -419.5 5298.899999999999 -275.7 C 5233.699999999999 -220.1 5172.299999999998 -176 5160.899999999999 -176 C 5124.499999999999 -176 5118.699999999999 -239.3 5118.699999999999 -659.2 L 5118.699999999999 -1083 L 5185.799999999999 -1071.5 C 5224.099999999999 -1065.7 5325.799999999999 -1033.2 5412.099999999999 -998.6 C 5609.599999999999 -923.8000000000001 5692.099999999999 -927.7 6010.4 -1035 C 6309.5 -1134.7 6399.7 -1148.2 6509 -1107.9 C 6599.1 -1071.5 6639.4 -1025.4 6764 -814.5000000000001 C 6808.1 -737.8000000000001 6863.7 -663.0000000000001 6886.7 -645.8000000000002 C 6934.599999999999 -613.2000000000002 7028.599999999999 -607.4000000000002 7045.9 -636.2000000000002 C 7065.099999999999 -666.9000000000002 6884.799999999999 -989.0000000000002 6788.9 -1100.3000000000002 C 6612.5 -1299.7000000000003 6441.799999999999 -1328.5000000000002 6039.099999999999 -1228.8000000000002 C 5714.999999999999 -1148.3000000000002 5550.099999999999 -1144.4 5402.499999999999 -1217.3000000000002 C 5275.999999999999 -1278.7000000000003 5189.699999999999 -1378.4 5134.099999999999 -1524.1000000000001 C 5101.499999999999 -1604.6000000000001 5091.9 -1683.3000000000002 5084.2 -1930.6000000000001 C 5078.4 -2130 5084.2 -2266.2000000000003 5097.599999999999 -2318 C 5116.799999999999 -2390.9 5128.299999999999 -2402.4 5201.2 -2421.5 C 5253 -2434.9 5346.9 -2438.8 5463.9 -2429.2 C 5918.4 -2398.5 6269.299999999999 -2592.2 6269.299999999999 -2872.2 C 6269.299999999999 -2950.7999999999997 6240.499999999999 -3014.1 6204.099999999999 -3014.1 C 6190.7 -3014.1 6106.299999999999 -2941.2 6018.099999999999 -2851.1 C 5874.299999999999 -2703.4 5845.499999999999 -2684.2999999999997 5741.999999999999 -2655.5 C 5621.199999999999 -2622.9 5153.299999999999 -2609.5 5124.499999999999 -2638.3 C 5097.599999999999 -2663.2000000000003 5105.299999999999 -3372.7000000000003 5132.199999999999 -3399.5 C 5145.5999999999985 -3412.9 5235.799999999999 -3426.4 5352.699999999999 -3430.2 C 5569.399999999999 -3439.7999999999997 5646.0999999999985 -3460.8999999999996 5801.399999999999 -3560.6 C 6198.299999999998 -3815.6 6338.299999999998 -3798.4 6597.199999999999 -3462.7999999999997 C 6696.899999999999 -3334.2999999999997 6765.999999999999 -3293.9999999999995 6859.899999999999 -3311.2999999999997 C 6946.199999999999 -3326.6 7074.699999999999 -3378.3999999999996 7074.699999999999 -3395.7 C 7074.699999999999 -3403.3999999999996 7034.399999999999 -3420.6 6984.5999999999985 -3432.1 C 6829.299999999998 -3472.4 6748.699999999999 -3531.7999999999997 6614.499999999998 -3704.4 C 6451.499999999998 -3913.4 6340.299999999998 -3992 6204.0999999999985 -3992 C 6081.399999999999 -3992 5987.399999999999 -3947.9 5751.5999999999985 -3790.7 C 5548.299999999998 -3654.6 5440.999999999998 -3608.5 5322.0999999999985 -3608.5 C 5183.999999999998 -3608.5 5114.999999999998 -3694.8 5090.0999999999985 -3896.1 C 5072.899999999999 -4049.5 5107.299999999998 -4356.3 5155.299999999998 -4448.4 C 5258.799999999998 -4649.7 5502.399999999999 -4766.7 5818.799999999998 -4766.7 C 6455.399999999999 -4764.8 7425.699999999999 -4285.4 7814.999999999998 -3779.2 C 7860.999999999998 -3717.7999999999997 7931.999999999998 -3600.8999999999996 7970.299999999998 -3518.3999999999996 C 8033.5999999999985 -3387.9999999999995 8043.199999999998 -3347.7999999999997 8048.899999999999 -3194.3999999999996 C 8068.0999999999985 -2783.9999999999995 7931.899999999999 -2642.0999999999995 7569.499999999999 -2688.2 C 7318.299999999999 -2718.8999999999996 7161.099999999999 -2713.1 7074.799999999999 -2669 C 6992.299999999999 -2626.8 6952.099999999999 -2577 6867.699999999999 -2408.2 C 6802.499999999999 -2279.7 6704.699999999999 -2181.8999999999996 6585.799999999999 -2130.2 C 6541.699999999999 -2111 6390.199999999999 -2076.5 6248.299999999999 -2053.5 C 5974.099999999999 -2009.4 5935.699999999999 -1997.9 5904.999999999999 -1942.3 C 5891.599999999999 -1915.5 5895.399999999999 -1894.3999999999999 5927.999999999999 -1854.1 C 5968.299999999999 -1802.3 5973.999999999999 -1802.3 6113.999999999999 -1811.8999999999999 C 6301.899999999999 -1825.3 6543.499999999999 -1896.3 6681.599999999999 -1980.6999999999998 C 6756.4 -2024.7999999999997 6819.7 -2086.2 6880.999999999999 -2168.6 C 7015.199999999999 -2352.7 7074.699999999999 -2417.9 7139.899999999999 -2452.4 C 7214.699999999999 -2490.7000000000003 7369.999999999999 -2490.7000000000003 7534.899999999999 -2450.5 C 7717.0999999999985 -2406.4 7816.799999999998 -2412.2 7933.699999999999 -2469.7 C 8092.799999999999 -2548.2999999999997 8194.499999999998 -2740.1 8221.3 -3008.5 C 8230.9 -3089 8244.3 -3138.9 8261.599999999999 -3144.6 C 8332.499999999998 -3167.6 8704.499999999998 -2678.6 8877.099999999999 -2333.5 C 9026.699999999999 -2030.5 9089.899999999998 -1815.8 9101.499999999998 -1555 C 9118.699999999999 -1215.6 9047.799999999997 -1135.1 8792.799999999997 -1202.2 C 8514.799999999997 -1275.1000000000001 8321.099999999997 -1229 8244.399999999998 -1068 C 8223.299999999997 -1023.9 8206.099999999999 -976 8206.099999999999 -960.6 C 8206.099999999999 -889.7 8142.799999999998 -699.8 8106.399999999999 -661.5 C 8075.699999999999 -628.9 8043.0999999999985 -617.4 7985.5999999999985 -617.4 C 7868.5999999999985 -617.4 7786.199999999999 -680.6999999999999 7713.299999999998 -828.3 C 7648.0999999999985 -958.6999999999999 7573.299999999998 -1236.6999999999998 7573.299999999998 -1351.8 C 7573.299999999998 -1451.5 7649.999999999998 -1509 7826.399999999999 -1537.8 C 8012.399999999999 -1566.6 8089.0999999999985 -1591.5 8158.0999999999985 -1643.3 C 8215.599999999999 -1687.3999999999999 8474.499999999998 -1936.6999999999998 8474.499999999998 -1950.1 C 8474.499999999998 -1953.8999999999999 8443.799999999997 -1967.3 8407.399999999998 -1978.8999999999999 C 8321.099999999999 -2007.6999999999998 8267.399999999998 -1988.4999999999998 8100.599999999998 -1875.3 C 7970.199999999998 -1787.1 7924.199999999998 -1767.8999999999999 7720.899999999998 -1731.5 C 7492.699999999998 -1691.2 7400.699999999998 -1580 7400.699999999998 -1349.9 C 7400.699999999998 -964.5000000000001 7646.099999999998 -488.9000000000001 7878.199999999998 -425.60000000000014 C 8081.399999999998 -371.90000000000015 8263.599999999999 -498.5000000000001 8294.299999999997 -713.2000000000002 C 8315.399999999998 -872.4000000000001 8342.199999999997 -949.1000000000001 8397.899999999998 -1004.7000000000002 C 8474.599999999999 -1081.4 8574.299999999997 -1077.6000000000001 8771.799999999997 -989.3000000000002 C 8856.199999999997 -952.9000000000002 8965.499999999998 -916.4000000000002 9015.299999999997 -910.7000000000002 C 9099.699999999997 -901.1000000000001 9107.299999999997 -903.0000000000001 9199.399999999998 -989.3000000000002 C 9276.099999999999 -1062.2000000000003 9337.499999999998 -1098.6000000000001 9337.499999999998 -1071.8000000000002 C 9337.499999999998 -1069.9 9358.599999999999 -956.8000000000002 9385.399999999998 -820.6000000000001 C 9444.799999999997 -525.3000000000002 9465.899999999998 -247.30000000000018 9435.199999999997 -170.60000000000014 C 9415.999999999996 -120.70000000000013 9410.299999999997 -118.80000000000014 9266.499999999996 -118.80000000000014 C 8999.999999999996 -116.90000000000013 8861.899999999996 -82.40000000000015 8309.599999999997 118.99999999999987 C 8175.2 167.4 7966.2 194.2 7851.1 177 z" stroke-linecap="round" />
</g>
</g>
</g>
</svg>